<mxfile host="app.diagrams.net" agent="Mozilla/5.0 (Windows NT 10.0; Win64; x64) AppleWebKit/537.36 (KHTML, like Gecko) Chrome/131.0.0.0 Safari/537.36" version="25.0.3">
  <diagram name="Page-1" id="B8A5ZgkOA11XEzRBXG2X">
    <mxGraphModel dx="1434" dy="892" grid="1" gridSize="10" guides="1" tooltips="1" connect="1" arrows="1" fold="1" page="1" pageScale="1" pageWidth="850" pageHeight="1100" math="0" shadow="0">
      <root>
        <mxCell id="0" />
        <mxCell id="1" parent="0" />
        <mxCell id="MpOa22wWS3hh388NK7Gq-3" value="" style="shape=image;html=1;verticalAlign=top;verticalLabelPosition=bottom;labelBackgroundColor=#ffffff;imageAspect=0;aspect=fixed;image=https://cdn4.iconfinder.com/data/icons/line-basic-ecommerce/64/icons_ecommerce_line-48-128.png" vertex="1" parent="1">
          <mxGeometry x="360" y="390" width="128" height="128" as="geometry" />
        </mxCell>
        <mxCell id="MpOa22wWS3hh388NK7Gq-4" value="Individual Resources (Deployments&lt;div&gt;Pods&lt;/div&gt;&lt;div&gt;Services) or API Groups(resources under one namesapce)&lt;/div&gt;" style="rounded=1;whiteSpace=wrap;html=1;fillColor=#fff2cc;strokeColor=#d6b656;" vertex="1" parent="1">
          <mxGeometry x="670" y="260" width="120" height="370" as="geometry" />
        </mxCell>
        <mxCell id="MpOa22wWS3hh388NK7Gq-5" value="" style="endArrow=none;dashed=1;html=1;dashPattern=1 3;strokeWidth=2;rounded=0;" edge="1" parent="1">
          <mxGeometry width="50" height="50" relative="1" as="geometry">
            <mxPoint x="400" y="480" as="sourcePoint" />
            <mxPoint x="450" y="430" as="targetPoint" />
          </mxGeometry>
        </mxCell>
        <mxCell id="MpOa22wWS3hh388NK7Gq-13" value="" style="endArrow=classic;html=1;rounded=0;entryX=0.033;entryY=0.073;entryDx=0;entryDy=0;entryPerimeter=0;flowAnimation=1;" edge="1" parent="1" target="MpOa22wWS3hh388NK7Gq-4">
          <mxGeometry relative="1" as="geometry">
            <mxPoint x="488" y="453.5" as="sourcePoint" />
            <mxPoint x="588" y="453.5" as="targetPoint" />
          </mxGeometry>
        </mxCell>
        <mxCell id="MpOa22wWS3hh388NK7Gq-14" value="Get" style="edgeLabel;resizable=0;html=1;;align=center;verticalAlign=middle;" connectable="0" vertex="1" parent="MpOa22wWS3hh388NK7Gq-13">
          <mxGeometry relative="1" as="geometry" />
        </mxCell>
        <mxCell id="MpOa22wWS3hh388NK7Gq-15" value="" style="endArrow=classic;html=1;rounded=0;entryX=-0.033;entryY=0.095;entryDx=0;entryDy=0;entryPerimeter=0;exitX=1;exitY=0.5;exitDx=0;exitDy=0;flowAnimation=1;" edge="1" parent="1" source="MpOa22wWS3hh388NK7Gq-3">
          <mxGeometry relative="1" as="geometry">
            <mxPoint x="498" y="463.5" as="sourcePoint" />
            <mxPoint x="676" y="357" as="targetPoint" />
          </mxGeometry>
        </mxCell>
        <mxCell id="MpOa22wWS3hh388NK7Gq-16" value="List" style="edgeLabel;resizable=0;html=1;;align=center;verticalAlign=middle;" connectable="0" vertex="1" parent="MpOa22wWS3hh388NK7Gq-15">
          <mxGeometry relative="1" as="geometry" />
        </mxCell>
        <mxCell id="MpOa22wWS3hh388NK7Gq-17" value="" style="endArrow=classic;html=1;rounded=0;entryX=0;entryY=0.5;entryDx=0;entryDy=0;exitX=1;exitY=0.5;exitDx=0;exitDy=0;flowAnimation=1;" edge="1" parent="1" source="MpOa22wWS3hh388NK7Gq-3" target="MpOa22wWS3hh388NK7Gq-4">
          <mxGeometry relative="1" as="geometry">
            <mxPoint x="490" y="450" as="sourcePoint" />
            <mxPoint x="686" y="367" as="targetPoint" />
          </mxGeometry>
        </mxCell>
        <mxCell id="MpOa22wWS3hh388NK7Gq-18" value="Watch" style="edgeLabel;resizable=0;html=1;;align=center;verticalAlign=middle;" connectable="0" vertex="1" parent="MpOa22wWS3hh388NK7Gq-17">
          <mxGeometry relative="1" as="geometry" />
        </mxCell>
        <mxCell id="MpOa22wWS3hh388NK7Gq-19" value="" style="endArrow=classic;html=1;rounded=0;entryX=-0.025;entryY=0.716;entryDx=0;entryDy=0;entryPerimeter=0;exitX=1;exitY=0.5;exitDx=0;exitDy=0;flowAnimation=1;" edge="1" parent="1" source="MpOa22wWS3hh388NK7Gq-3" target="MpOa22wWS3hh388NK7Gq-4">
          <mxGeometry relative="1" as="geometry">
            <mxPoint x="518" y="483.5" as="sourcePoint" />
            <mxPoint x="696" y="377" as="targetPoint" />
          </mxGeometry>
        </mxCell>
        <mxCell id="MpOa22wWS3hh388NK7Gq-20" value="Create" style="edgeLabel;resizable=0;html=1;;align=center;verticalAlign=middle;" connectable="0" vertex="1" parent="MpOa22wWS3hh388NK7Gq-19">
          <mxGeometry relative="1" as="geometry" />
        </mxCell>
        <mxCell id="MpOa22wWS3hh388NK7Gq-21" value="" style="endArrow=classic;html=1;rounded=0;entryX=0.008;entryY=0.908;entryDx=0;entryDy=0;entryPerimeter=0;exitX=1;exitY=0.5;exitDx=0;exitDy=0;flowAnimation=1;" edge="1" parent="1" source="MpOa22wWS3hh388NK7Gq-3" target="MpOa22wWS3hh388NK7Gq-4">
          <mxGeometry relative="1" as="geometry">
            <mxPoint x="528" y="493.5" as="sourcePoint" />
            <mxPoint x="706" y="387" as="targetPoint" />
          </mxGeometry>
        </mxCell>
        <mxCell id="MpOa22wWS3hh388NK7Gq-22" value="List" style="edgeLabel;resizable=0;html=1;;align=center;verticalAlign=middle;" connectable="0" vertex="1" parent="MpOa22wWS3hh388NK7Gq-21">
          <mxGeometry relative="1" as="geometry" />
        </mxCell>
        <mxCell id="MpOa22wWS3hh388NK7Gq-24" value="Resources" style="text;html=1;align=center;verticalAlign=middle;whiteSpace=wrap;rounded=0;" vertex="1" parent="1">
          <mxGeometry x="700" y="220" width="60" height="30" as="geometry" />
        </mxCell>
        <mxCell id="MpOa22wWS3hh388NK7Gq-25" value="RoleBindings" style="text;html=1;align=center;verticalAlign=middle;whiteSpace=wrap;rounded=0;" vertex="1" parent="1">
          <mxGeometry x="395" y="360" width="60" height="30" as="geometry" />
        </mxCell>
        <mxCell id="MpOa22wWS3hh388NK7Gq-26" value="User A" style="rounded=1;whiteSpace=wrap;html=1;fillColor=#d5e8d4;strokeColor=#82b366;" vertex="1" parent="1">
          <mxGeometry x="80" y="260" width="120" height="60" as="geometry" />
        </mxCell>
        <mxCell id="MpOa22wWS3hh388NK7Gq-27" value="User B" style="rounded=1;whiteSpace=wrap;html=1;fillColor=#d5e8d4;strokeColor=#82b366;" vertex="1" parent="1">
          <mxGeometry x="80" y="360" width="120" height="60" as="geometry" />
        </mxCell>
        <mxCell id="MpOa22wWS3hh388NK7Gq-28" value="User C" style="rounded=1;whiteSpace=wrap;html=1;fillColor=#d5e8d4;strokeColor=#82b366;" vertex="1" parent="1">
          <mxGeometry x="80" y="470" width="120" height="60" as="geometry" />
        </mxCell>
        <mxCell id="MpOa22wWS3hh388NK7Gq-29" value="User D" style="rounded=1;whiteSpace=wrap;html=1;fillColor=#d5e8d4;strokeColor=#82b366;" vertex="1" parent="1">
          <mxGeometry x="80" y="560" width="120" height="60" as="geometry" />
        </mxCell>
        <mxCell id="MpOa22wWS3hh388NK7Gq-30" value="" style="endArrow=classic;html=1;rounded=0;entryX=0;entryY=0.5;entryDx=0;entryDy=0;exitX=1;exitY=0.5;exitDx=0;exitDy=0;flowAnimation=1;" edge="1" parent="1" source="MpOa22wWS3hh388NK7Gq-26" target="MpOa22wWS3hh388NK7Gq-3">
          <mxGeometry relative="1" as="geometry">
            <mxPoint x="260" y="460" as="sourcePoint" />
            <mxPoint x="443" y="602" as="targetPoint" />
          </mxGeometry>
        </mxCell>
        <mxCell id="MpOa22wWS3hh388NK7Gq-31" value="Roles" style="edgeLabel;resizable=0;html=1;;align=center;verticalAlign=middle;" connectable="0" vertex="1" parent="MpOa22wWS3hh388NK7Gq-30">
          <mxGeometry relative="1" as="geometry" />
        </mxCell>
        <mxCell id="MpOa22wWS3hh388NK7Gq-32" value="Roles" style="endArrow=classic;html=1;rounded=0;exitX=1;exitY=0.5;exitDx=0;exitDy=0;flowAnimation=1;" edge="1" parent="1">
          <mxGeometry relative="1" as="geometry">
            <mxPoint x="200" y="390" as="sourcePoint" />
            <mxPoint x="350" y="450" as="targetPoint" />
          </mxGeometry>
        </mxCell>
        <mxCell id="MpOa22wWS3hh388NK7Gq-34" value="Role" style="endArrow=classic;html=1;rounded=0;exitX=1;exitY=0.5;exitDx=0;exitDy=0;flowAnimation=1;" edge="1" parent="1">
          <mxGeometry relative="1" as="geometry">
            <mxPoint x="200" y="500" as="sourcePoint" />
            <mxPoint x="360" y="450" as="targetPoint" />
          </mxGeometry>
        </mxCell>
        <mxCell id="MpOa22wWS3hh388NK7Gq-36" value="Role" style="endArrow=classic;html=1;rounded=0;exitX=1;exitY=0.5;exitDx=0;exitDy=0;flowAnimation=1;" edge="1" parent="1">
          <mxGeometry relative="1" as="geometry">
            <mxPoint x="200" y="590" as="sourcePoint" />
            <mxPoint x="360" y="450" as="targetPoint" />
          </mxGeometry>
        </mxCell>
        <mxCell id="MpOa22wWS3hh388NK7Gq-38" value="Users" style="text;html=1;align=center;verticalAlign=middle;whiteSpace=wrap;rounded=0;" vertex="1" parent="1">
          <mxGeometry x="110" y="210" width="60" height="30" as="geometry" />
        </mxCell>
      </root>
    </mxGraphModel>
  </diagram>
</mxfile>
